<svg width="25" height="24" viewBox="0 0 25 24" fill="none" xmlns="http://www.w3.org/2000/svg">
  <g clip-path="url(#clip0_1_465)">
    <g clip-path="url(#clip1_1_465)">
      <mask id="mask0_1_465" style="mask-type:luminance" maskUnits="userSpaceOnUse" x="0" y="0" width="25" height="24">
        <path d="M24.25 0H0.25V24H24.25V0Z" fill="white" />
      </mask>
      <g mask="url(#mask0_1_465)">
        <path fill-rule="evenodd" clip-rule="evenodd" d="M23.0492 5.52035V9.84035C21.8612 9.84035 20.8892 10.8124 20.8892 12.0004C20.8892 13.1884 21.8612 14.1604 23.0492 14.1604V18.4804C23.0492 19.6684 22.0772 20.6404 20.8892 20.6404H3.60922C2.42122 20.6404 1.44922 19.6684 1.44922 18.4804V14.1604C2.64802 14.1604 3.60922 13.1884 3.60922 12.0004C3.60922 10.8124 2.64802 9.84035 1.46002 9.84035V5.52035C1.46002 4.32155 2.42122 3.36035 3.60922 3.36035H20.8892C22.0772 3.36035 23.0492 4.32155 23.0492 5.52035ZM7.87126 11.4351C8.26706 11.6571 8.7063 11.7681 9.18898 11.7681C9.66201 11.7681 10.0916 11.6571 10.4777 11.4351C10.8735 11.2131 11.1825 10.9138 11.4045 10.5373C11.6265 10.1608 11.7375 9.7457 11.7375 9.29198C11.7375 8.83826 11.6265 8.42315 11.4045 8.04666C11.1825 7.67017 10.8735 7.37091 10.4777 7.14887C10.0916 6.92684 9.66201 6.81582 9.18898 6.81582C8.7063 6.81582 8.26706 6.92684 7.87126 7.14887C7.48511 7.37091 7.18103 7.67017 6.95899 8.04666C6.73696 8.42315 6.62594 8.83826 6.62594 9.29198C6.62594 9.7457 6.73696 10.1608 6.95899 10.5373C7.18103 10.9138 7.48511 11.2131 7.87126 11.4351ZM14.8943 6.81582L8.46496 16.4164L9.60891 17.1838L16.0382 7.58329L14.8943 6.81582ZM9.89852 10.0594C9.7151 10.2525 9.47859 10.3491 9.18898 10.3491C8.90903 10.3491 8.67251 10.2525 8.47944 10.0594C8.28637 9.85672 8.18983 9.6009 8.18983 9.29198C8.18983 8.98306 8.28637 8.73207 8.47944 8.539C8.67251 8.33627 8.90903 8.23491 9.18898 8.23491C9.47859 8.23491 9.7151 8.33144 9.89852 8.52452C10.0916 8.71759 10.1881 8.97341 10.1881 9.29198C10.1881 9.61055 10.0916 9.86637 9.89852 10.0594ZM14.011 16.8508C14.4068 17.0728 14.846 17.1838 15.3287 17.1838C15.8017 17.1838 16.2313 17.0728 16.6174 16.8508C17.0132 16.6287 17.3222 16.3295 17.5442 15.953C17.7662 15.5765 17.8772 15.1614 17.8772 14.7077C17.8772 14.2539 17.7662 13.8388 17.5442 13.4623C17.3222 13.0859 17.0132 12.7866 16.6174 12.5646C16.2313 12.3425 15.8017 12.2315 15.3287 12.2315C14.846 12.2315 14.4068 12.3425 14.011 12.5646C13.6248 12.7866 13.3207 13.0859 13.0987 13.4623C12.8767 13.8388 12.7657 14.2539 12.7657 14.7077C12.7657 15.1614 12.8767 15.5765 13.0987 15.953C13.3207 16.3295 13.6248 16.6287 14.011 16.8508ZM16.0382 15.4751C15.8548 15.6682 15.6183 15.7647 15.3287 15.7647C15.0487 15.7647 14.8122 15.6682 14.6191 15.4751C14.4261 15.2724 14.3295 15.0166 14.3295 14.7077C14.3295 14.3988 14.4261 14.1478 14.6191 13.9547C14.8122 13.752 15.0487 13.6506 15.3287 13.6506C15.6183 13.6506 15.8548 13.7471 16.0382 13.9402C16.2313 14.1333 16.3278 14.3891 16.3278 14.7077C16.3278 15.0262 16.2313 15.2821 16.0382 15.4751Z" fill="#FFD333" />
      </g>
    </g>
  </g>
  <defs>
    <clipPath id="clip0_1_465">
      <rect width="24" height="24" fill="white" transform="translate(0.25)" />
    </clipPath>
    <clipPath id="clip1_1_465">
      <rect width="24" height="24" fill="white" transform="translate(0.25)" />
    </clipPath>
  </defs>
</svg>