<svg width="25" height="24" viewBox="0 0 25 24" fill="none" xmlns="http://www.w3.org/2000/svg">
  <g clip-path="url(#clip0_1_458)">
    <path d="M12.2 1.02048C7.41999 1.33048 3.79999 5.52048 3.79999 10.3105V17.0005C3.79999 18.6605 5.13999 20.0005 6.79999 20.0005H7.79999C8.89999 20.0005 9.79999 19.1005 9.79999 18.0005V14.0005C9.79999 12.9005 8.89999 12.0005 7.79999 12.0005H5.79999V10.2905C5.79999 6.45048 8.75999 3.11048 12.59 3.00048C16.56 2.89048 19.8 6.06048 19.8 10.0005V12.0005H17.8C16.7 12.0005 15.8 12.9005 15.8 14.0005V18.0005C15.8 19.1005 16.7 20.0005 17.8 20.0005H19.8V21.0005H13.8C13.25 21.0005 12.8 21.4505 12.8 22.0005C12.8 22.5505 13.25 23.0005 13.8 23.0005H18.8C20.46 23.0005 21.8 21.6605 21.8 20.0005V10.0005C21.8 4.83048 17.44 0.680478 12.2 1.02048Z" fill="#FFD333" />
  </g>
  <defs>
    <clipPath id="clip0_1_458">
      <rect width="24" height="24" fill="white" transform="translate(0.799988)" />
    </clipPath>
  </defs>
</svg>