<svg width="25" height="24" viewBox="0 0 25 24" fill="none" xmlns="http://www.w3.org/2000/svg">
  <g clip-path="url(#clip0_1_478)">
    <path d="M8.28005 14.75C8.51338 15.55 8.87588 16.1958 9.36755 16.6875C9.85922 17.1792 10.4968 17.5167 11.2801 17.7V18.125C11.2801 18.3583 11.3676 18.5625 11.5426 18.7375C11.7176 18.9125 11.9218 19 12.1551 19C12.3884 19 12.5926 18.9125 12.7676 18.7375C12.9426 18.5625 13.0301 18.3583 13.0301 18.125V17.75C13.8634 17.6 14.5801 17.275 15.1801 16.775C15.7801 16.275 16.0801 15.5333 16.0801 14.55C16.0801 13.85 15.8801 13.2083 15.4801 12.625C15.0801 12.0417 14.2801 11.5333 13.0801 11.1C12.0801 10.7667 11.3884 10.475 11.0051 10.225C10.6218 9.975 10.4301 9.63333 10.4301 9.2C10.4301 8.76667 10.5843 8.425 10.8926 8.175C11.2009 7.925 11.6468 7.8 12.2301 7.8C12.7634 7.8 13.1801 7.92917 13.4801 8.1875C13.7801 8.44583 13.9968 8.76667 14.1301 9.15L15.7301 8.5C15.5468 7.91667 15.2093 7.40833 14.7176 6.975C14.2259 6.54167 13.6801 6.3 13.0801 6.25V5.875C13.0801 5.64167 12.9926 5.4375 12.8176 5.2625C12.6426 5.0875 12.4384 5 12.2051 5C11.9718 5 11.7676 5.0875 11.5926 5.2625C11.4176 5.4375 11.3301 5.64167 11.3301 5.875V6.25C10.4968 6.43333 9.84672 6.8 9.38005 7.35C8.91338 7.9 8.68005 8.51667 8.68005 9.2C8.68005 9.98333 8.90922 10.6167 9.36755 11.1C9.82588 11.5833 10.5468 12 11.5301 12.35C12.5801 12.7333 13.3093 13.075 13.7176 13.375C14.1259 13.675 14.3301 14.0667 14.3301 14.55C14.3301 15.1 14.1343 15.5042 13.7426 15.7625C13.3509 16.0208 12.8801 16.15 12.3301 16.15C11.7801 16.15 11.2926 15.9792 10.8676 15.6375C10.4426 15.2958 10.1301 14.7833 9.93005 14.1L8.28005 14.75ZM12.1801 22C10.7968 22 9.49672 21.7375 8.28005 21.2125C7.06338 20.6875 6.00505 19.975 5.10505 19.075C4.20505 18.175 3.49255 17.1167 2.96755 15.9C2.44255 14.6833 2.18005 13.3833 2.18005 12C2.18005 10.6167 2.44255 9.31667 2.96755 8.1C3.49255 6.88333 4.20505 5.825 5.10505 4.925C6.00505 4.025 7.06338 3.3125 8.28005 2.7875C9.49672 2.2625 10.7968 2 12.1801 2C13.5634 2 14.8634 2.2625 16.0801 2.7875C17.2968 3.3125 18.3551 4.025 19.2551 4.925C20.1551 5.825 20.8676 6.88333 21.3926 8.1C21.9176 9.31667 22.1801 10.6167 22.1801 12C22.1801 13.3833 21.9176 14.6833 21.3926 15.9C20.8676 17.1167 20.1551 18.175 19.2551 19.075C18.3551 19.975 17.2968 20.6875 16.0801 21.2125C14.8634 21.7375 13.5634 22 12.1801 22Z" fill="#FFD333" />
  </g>
  <defs>
    <clipPath id="clip0_1_478">
      <rect width="24" height="24" fill="white" transform="translate(0.180054)" />
    </clipPath>
  </defs>
</svg>