<svg width="24" height="25" viewBox="0 0 24 25" fill="none" xmlns="http://www.w3.org/2000/svg">
  <g clip-path="url(#clip0_1_434)">
    <g clip-path="url(#clip1_1_434)">
      <path d="M12 22.5C17.5228 22.5 22 18.0228 22 12.5C22 6.97715 17.5228 2.5 12 2.5C6.47715 2.5 2 6.97715 2 12.5C2 18.0228 6.47715 22.5 12 22.5Z" fill="#2474E5" />
      <path d="M12 16.5C14.2091 16.5 16 14.7091 16 12.5C16 10.2909 14.2091 8.5 12 8.5C9.79086 8.5 8 10.2909 8 12.5C8 14.7091 9.79086 16.5 12 16.5Z" fill="#EDF3FD" />
    </g>
  </g>
  <defs>
    <clipPath id="clip0_1_434">
      <rect width="24" height="24" fill="white" transform="translate(0 0.5)" />
    </clipPath>
    <clipPath id="clip1_1_434">
      <rect width="24" height="24" fill="white" transform="translate(0 0.5)" />
    </clipPath>
  </defs>
</svg>