<svg width="25" height="24" viewBox="0 0 25 24" fill="none" xmlns="http://www.w3.org/2000/svg">
  <g clip-path="url(#clip0_1_452)">
    <path d="M24.88 12L22.2182 8.95635L22.5891 4.93089L18.6509 4.03635L16.5891 0.545441L12.88 2.13817L9.17091 0.545441L7.1091 4.02544L3.17091 4.90908L3.54182 8.94544L0.880005 12L3.54182 15.0436L3.17091 19.08L7.1091 19.9745L9.17091 23.4545L12.88 21.8509L16.5891 23.4436L18.6509 19.9636L22.5891 19.0691L22.2182 15.0436L24.88 12ZM10.0218 16.3745L7.42546 13.7563C7.00001 13.3309 7.00001 12.6436 7.42546 12.2182L7.50182 12.1418C7.92728 11.7163 8.62546 11.7163 9.05091 12.1418L10.8073 13.9091L16.4255 8.27999C16.8509 7.85453 17.5491 7.85453 17.9746 8.27999L18.0509 8.35635C18.4764 8.7818 18.4764 9.46908 18.0509 9.89453L11.5927 16.3745C11.1455 16.8 10.4582 16.8 10.0218 16.3745Z" fill="#FFD333" />
  </g>
  <defs>
    <clipPath id="clip0_1_452">
      <rect width="24" height="24" fill="white" transform="translate(0.880005)" />
    </clipPath>
  </defs>
</svg>